Coordinates
version=1
nRows=9
nColumns=36
inDegrees=yes

Units are S.I. units (second, meters, Newtons, ...)
If the header above contains a line with 'inDegrees', this indicates whether rotational values are in degrees (yes) or radians (no).

endheader
time	pelvis_tilt	pelvis_list	pelvis_rotation	pelvis_tx	pelvis_ty	pelvis_tz	hip_flexion_r	hip_adduction_r	hip_rotation_r	knee_angle_r	knee_angle_r_beta	ankle_angle_r	subtalar_angle_r	mtp_angle_r	hip_flexion_l	hip_adduction_l	hip_rotation_l	knee_angle_l	knee_angle_l_beta	ankle_angle_l	subtalar_angle_l	mtp_angle_l	lumbar_extension	lumbar_bending	lumbar_rotation	arm_flex_r	arm_add_r	arm_rot_r	elbow_flex_r	pro_sup_r	arm_flex_l	arm_add_l	arm_rot_l	elbow_flex_l	pro_sup_l
      1.72500000	     -1.39655675	      0.58134995	     -3.57910547	     -0.93709478	      1.25661119	     -0.02803620	     -5.38795059	      0.20665644	     -2.61364244	      0.25896494	      0.00451979	      5.40070821	     -6.02422466	     -7.49999987	     -6.73497836	     -1.98652247	     -9.35799889	      0.27536082	      0.00480595	      7.72434112	      8.60446320	     -7.49999987	     -4.45554935	      0.28599788	      3.41194256	     18.20894233	     -6.39068971	     60.65076009	     23.48402253	     64.17825178	     17.69991583	     -9.24023442	     62.45100201	     19.20213686	     49.57232724
      1.72916670	     -1.33611250	      0.59128195	     -3.58458731	     -0.93786505	      1.25639744	     -0.02820265	     -5.42661889	      0.20812910	     -2.68094651	      0.26028279	      0.00454279	      5.45443570	     -5.86369993	     -7.49999987	     -6.80661001	     -1.99562430	     -9.40591816	      0.27918756	      0.00487274	      7.71638001	      8.51037240	     -7.49999987	     -4.59617216	      0.24822701	      3.43831586	     18.26855665	     -6.32931318	     60.41155397	     23.43180164	     63.87309604	     17.69790222	     -9.29339827	     61.74496340	     19.43864401	     50.19462535
      1.73333330	     -1.42703250	      0.60745999	     -3.53343794	     -0.93629440	      1.25666242	     -0.02793154	     -5.36140872	      0.21685445	     -2.83690196	      0.26069089	      0.00454991	      5.53550983	     -5.54546928	     -7.49999987	     -6.71470069	     -2.01740175	     -9.34743235	      0.28468074	      0.00496862	      7.74120582	      8.60160373	     -7.49999987	     -4.47181616	      0.23961373	      3.41024504	     18.20528218	     -6.23446657	     60.36441551	     23.22433276	     63.75459826	     17.53498183	     -9.29598431	     61.06600489	     19.43770928	     50.55072914
      1.73750000	     -1.37939490	      0.61821571	     -3.47701380	     -0.93605802	      1.25969820	     -0.02905038	     -5.42392010	      0.20088069	     -2.89531231	      0.26158140	      0.00456546	      5.52756660	     -5.51556096	     -7.49999987	     -6.75286971	     -2.01346759	     -9.09620470	      0.28137881	      0.00491099	      7.65477161	      8.37386245	     -7.49999987	     -4.58924245	      0.24258661	      3.38005645	     18.18293790	     -6.25024863	     60.23963475	     23.30672961	     63.45870153	     17.49511608	     -9.29954106	     60.46659179	     19.63832155	     51.35262515
      1.74166670	     -1.52101353	      0.61983980	     -3.59459954	     -0.93552707	      1.25890774	     -0.02935019	     -5.26508232	      0.18286992	     -2.63007309	      0.26297119	      0.00458971	      5.42525604	     -5.66759160	     -7.49999987	     -6.61882141	     -2.00257780	     -9.58239447	      0.28143097	      0.00491190	      7.82146749	      9.12998796	     -7.49999987	     -4.33753386	      0.27051071	      3.43847083	     18.33109814	     -6.32082573	     61.87076471	     23.06986821	     64.41541418	     17.56095979	     -9.14709308	     61.91411338	     19.07316396	     50.63875645
      1.74583330	     -1.46473926	      0.60570888	     -3.59452308	     -0.93575032	      1.25872186	     -0.02740847	     -5.33816582	      0.20506185	     -2.63328966	      0.26082320	      0.00455222	      5.33453682	     -5.67725309	     -7.49999987	     -6.68548717	     -2.01726825	     -9.51577948	      0.27730842	      0.00483994	      7.81183049	      9.17249051	     -7.49999987	     -4.44088982	      0.25230924	      3.49895783	     18.27954714	     -6.34694384	     61.68728558	     23.20741741	     64.20041359	     17.57459881	     -9.19658499	     61.78774751	     19.26554416	     50.83636745
      1.75000000	     -1.44222687	      0.60029554	     -3.61959907	     -0.93501965	      1.25643120	     -0.02945655	     -5.39268079	      0.17906616	     -2.75346734	      0.26498590	      0.00462488	      5.33146153	     -5.67451173	     -7.49999987	     -6.73746724	     -1.99528990	     -9.47462146	      0.27628435	      0.00482207	      7.87110156	      9.19593667	     -7.49999987	     -4.41367835	      0.28548967	      3.42713882	     18.22501983	     -6.27955950	     61.53088926	     23.03628959	     64.10003305	     17.48979758	     -9.21465241	     61.56978397	     19.27818111	     50.82798014
      1.75416670	     -1.43018418	      0.59716623	     -3.65734246	     -0.93511486	      1.25707887	     -0.03012599	     -5.43531275	      0.15632279	     -2.89380119	      0.26862593	      0.00468841	      5.26493604	     -5.72493112	     -7.49999987	     -6.76675658	     -1.96461474	     -9.50531200	      0.27373582	      0.00477759	      8.01161118	      9.44354232	     -7.49999987	     -4.39618022	      0.28586787	      3.41381732	     18.18860801	     -6.32502040	     61.53400255	     23.05414373	     64.17385950	     17.46056225	     -9.18519493	     61.47865218	     19.30510731	     50.68821985
      1.75833330	     -1.31211646	      0.58302306	     -3.70817245	     -0.93562748	      1.25867403	     -0.03019051	     -5.57516332	      0.12592484	     -3.03423370	      0.26972712	      0.00470763	      5.26779767	     -5.69252291	     -7.49999987	     -6.90531409	     -1.93046907	     -9.31062984	      0.26906296	      0.00469603	      7.87011962	      9.05781519	     -7.49999987	     -4.54696818	      0.31433540	      3.35807728	     18.22991151	     -6.39195006	     61.51882625	     23.20175099	     64.08949518	     17.41524287	     -9.23409626	     61.32006987	     19.51468950	     50.78928163
